STARTFONT 2.1
FONT -Monotype-Century Gothic-Bold-I-Normal--14-100-100-100-P-70-iso8859-2
SIZE 10 100 100
FONTBOUNDINGBOX 21 17 -3 -3

STARTPROPERTIES 24
FOUNDRY "Monotype"
FAMILY_NAME "Century Gothic"
WEIGHT_NAME "Bold"
SLANT "I"
SETWIDTH_NAME "Normal"
ADD_STYLE_NAME ""
PIXEL_SIZE 14
POINT_SIZE 100
RESOLUTION_X 100
RESOLUTION_Y 100
SPACING "P"
AVERAGE_WIDTH 70
CHARSET_REGISTRY "iso8859"
CHARSET_ENCODING "2"
FACE_NAME "Century Gothic Bold Italic ISO Latin2"
_DEC_DEVICE_FONTNAMES "PS=centurygothic-bit-lat2"
COPYRIGHT "Copyright (c) 1994 Monotype Typography Ltd."
CAP_HEIGHT 12
X_HEIGHT 9
WEIGHT 10
QUAD_WIDTH 7
DEFAULT_CHAR 160
FONT_DESCENT 3
FONT_ASCENT 14
ENDPROPERTIES

CHARS 191

STARTCHAR space
ENCODING 32
SWIDTH 280 0
DWIDTH 4 0
BBX 0 0 0 0
BITMAP
ENDCHAR

STARTCHAR exclam
ENCODING 33
SWIDTH 280 0
DWIDTH 4 0
BBX 4 10 1 0
BITMAP
30
30
30
60
60
60
60
00
C0
C0
ENDCHAR

STARTCHAR quotedbl
ENCODING 34
SWIDTH 360 0
DWIDTH 5 0
BBX 5 3 0 7
BITMAP
D8
D8
D8
ENDCHAR

STARTCHAR numbersign
ENCODING 35
SWIDTH 600 0
DWIDTH 8 0
BBX 9 10 0 0
BITMAP
3600
3600
3600
7F80
3600
3600
FF00
6C00
6C00
6C00
ENDCHAR

STARTCHAR dollar
ENCODING 36
SWIDTH 560 0
DWIDTH 7 0
BBX 7 13 0 -2
BITMAP
0C
3E
76
60
70
38
1C
0E
C6
EE
7C
30
30
ENDCHAR

STARTCHAR percent
ENCODING 37
SWIDTH 860 0
DWIDTH 11 0
BBX 10 10 1 0
BITMAP
7B00
DD00
DB00
7200
0600
0C00
1BC0
36C0
66C0
4380
ENDCHAR

STARTCHAR ampersand
ENCODING 38
SWIDTH 680 0
DWIDTH 9 0
BBX 8 10 1 0
BITMAP
1C
3E
36
36
1C
78
EF
C6
FE
7B
ENDCHAR

STARTCHAR quoteright
ENCODING 39
SWIDTH 280 0
DWIDTH 4 0
BBX 3 4 1 6
BITMAP
60
60
60
C0
ENDCHAR

STARTCHAR parenleft
ENCODING 40
SWIDTH 380 0
DWIDTH 5 0
BBX 5 13 1 -3
BITMAP
18
30
30
60
60
C0
C0
C0
C0
C0
C0
60
60
ENDCHAR

STARTCHAR parenright
ENCODING 41
SWIDTH 380 0
DWIDTH 5 0
BBX 5 13 -1 -3
BITMAP
30
30
18
18
18
18
18
18
30
30
60
60
C0
ENDCHAR

STARTCHAR asterisk
ENCODING 42
SWIDTH 440 0
DWIDTH 6 0
BBX 5 5 1 5
BITMAP
90
58
70
D0
48
ENDCHAR

STARTCHAR plus
ENCODING 43
SWIDTH 600 0
DWIDTH 8 0
BBX 6 6 1 2
BITMAP
30
30
FC
FC
30
30
ENDCHAR

STARTCHAR comma
ENCODING 44
SWIDTH 280 0
DWIDTH 4 0
BBX 2 3 1 -1
BITMAP
40
C0
80
ENDCHAR

STARTCHAR minus
ENCODING 45
SWIDTH 600 0
DWIDTH 8 0
BBX 6 2 1 4
BITMAP
FC
FC
ENDCHAR

STARTCHAR period
ENCODING 46
SWIDTH 280 0
DWIDTH 4 0
BBX 2 2 1 0
BITMAP
C0
C0
ENDCHAR

STARTCHAR slash
ENCODING 47
SWIDTH 460 0
DWIDTH 6 0
BBX 6 12 0 -2
BITMAP
0C
08
08
18
10
10
30
20
20
60
40
C0
ENDCHAR

STARTCHAR zero
ENCODING 48
SWIDTH 560 0
DWIDTH 7 0
BBX 7 10 0 0
BITMAP
18
7C
66
C6
C6
C6
C6
CC
7C
30
ENDCHAR

STARTCHAR one
ENCODING 49
SWIDTH 560 0
DWIDTH 7 0
BBX 4 10 2 0
BITMAP
F0
F0
30
60
60
60
60
C0
C0
C0
ENDCHAR

STARTCHAR two
ENCODING 50
SWIDTH 560 0
DWIDTH 7 0
BBX 7 10 0 0
BITMAP
3C
7E
66
06
0C
0C
18
30
7C
FC
ENDCHAR

STARTCHAR three
ENCODING 51
SWIDTH 560 0
DWIDTH 7 0
BBX 7 10 0 0
BITMAP
3C
7E
66
06
1C
18
0C
CC
FC
78
ENDCHAR

STARTCHAR four
ENCODING 52
SWIDTH 560 0
DWIDTH 7 0
BBX 7 10 0 0
BITMAP
06
0E
1E
36
2C
6C
FE
FE
18
18
ENDCHAR

STARTCHAR five
ENCODING 53
SWIDTH 560 0
DWIDTH 7 0
BBX 7 10 0 0
BITMAP
3E
3E
60
78
7C
0C
0C
DC
F8
70
ENDCHAR

STARTCHAR six
ENCODING 54
SWIDTH 560 0
DWIDTH 7 0
BBX 6 10 1 0
BITMAP
0C
18
30
60
78
FC
CC
CC
F8
70
ENDCHAR

STARTCHAR seven
ENCODING 55
SWIDTH 560 0
DWIDTH 7 0
BBX 6 10 1 0
BITMAP
FC
FC
0C
18
18
30
60
60
C0
C0
ENDCHAR

STARTCHAR eight
ENCODING 56
SWIDTH 560 0
DWIDTH 7 0
BBX 7 10 0 0
BITMAP
1C
3E
66
64
38
6C
CC
CC
F8
70
ENDCHAR

STARTCHAR nine
ENCODING 57
SWIDTH 560 0
DWIDTH 7 0
BBX 6 10 1 0
BITMAP
38
7C
CC
CC
FC
78
18
30
60
C0
ENDCHAR

STARTCHAR colon
ENCODING 58
SWIDTH 280 0
DWIDTH 4 0
BBX 3 7 1 0
BITMAP
60
60
00
00
00
C0
C0
ENDCHAR

STARTCHAR semicolon
ENCODING 59
SWIDTH 280 0
DWIDTH 4 0
BBX 3 8 1 -1
BITMAP
60
60
00
00
00
40
C0
80
ENDCHAR

STARTCHAR less
ENCODING 60
SWIDTH 600 0
DWIDTH 8 0
BBX 7 7 1 1
BITMAP
06
1C
70
C0
60
38
0C
ENDCHAR

STARTCHAR equal
ENCODING 61
SWIDTH 600 0
DWIDTH 8 0
BBX 6 5 1 2
BITMAP
FC
FC
00
FC
FC
ENDCHAR

STARTCHAR greater
ENCODING 62
SWIDTH 600 0
DWIDTH 8 0
BBX 7 7 1 1
BITMAP
60
38
0C
06
1C
70
C0
ENDCHAR

STARTCHAR question
ENCODING 63
SWIDTH 560 0
DWIDTH 7 0
BBX 6 10 1 0
BITMAP
70
F8
CC
0C
18
30
30
00
60
60
ENDCHAR

STARTCHAR at
ENCODING 64
SWIDTH 740 0
DWIDTH 10 0
BBX 10 10 0 0
BITMAP
1F00
6080
5B40
B740
B340
B340
B640
5B80
6000
1E00
ENDCHAR

STARTCHAR A
ENCODING 65
SWIDTH 740 0
DWIDTH 9 0
BBX 9 10 -1 0
BITMAP
0600
0E00
0E00
1B00
1B00
3300
3F00
7F80
6180
C180
ENDCHAR

STARTCHAR B
ENCODING 66
SWIDTH 580 0
DWIDTH 8 0
BBX 8 10 0 0
BITMAP
3E
3F
33
63
7E
7C
66
C6
FC
F8
ENDCHAR

STARTCHAR C
ENCODING 67
SWIDTH 780 0
DWIDTH 10 0
BBX 9 10 1 0
BITMAP
0E00
3F80
7180
6000
C000
C000
C000
6300
7F00
1C00
ENDCHAR

STARTCHAR D
ENCODING 68
SWIDTH 700 0
DWIDTH 9 0
BBX 9 10 0 0
BITMAP
3C00
3F00
3300
6180
6180
6180
C300
C700
FE00
F800
ENDCHAR

STARTCHAR E
ENCODING 69
SWIDTH 520 0
DWIDTH 7 0
BBX 7 10 0 0
BITMAP
3E
3E
30
60
7C
7C
60
C0
FC
FC
ENDCHAR

STARTCHAR F
ENCODING 70
SWIDTH 480 0
DWIDTH 6 0
BBX 7 10 0 0
BITMAP
3E
3E
30
60
7C
7C
60
C0
C0
C0
ENDCHAR

STARTCHAR G
ENCODING 71
SWIDTH 840 0
DWIDTH 10 0
BBX 9 10 1 0
BITMAP
0E00
3F80
7180
6000
C000
CF80
CF80
6300
7F00
1C00
ENDCHAR

STARTCHAR H
ENCODING 72
SWIDTH 680 0
DWIDTH 9 0
BBX 9 10 0 0
BITMAP
3180
3180
3180
6300
7F00
7F00
6300
C600
C600
C600
ENDCHAR

STARTCHAR I
ENCODING 73
SWIDTH 280 0
DWIDTH 4 0
BBX 4 10 0 0
BITMAP
30
30
30
60
60
60
60
C0
C0
C0
ENDCHAR

STARTCHAR J
ENCODING 74
SWIDTH 480 0
DWIDTH 6 0
BBX 7 10 -1 0
BITMAP
06
06
06
0C
0C
0C
18
D8
F8
70
ENDCHAR

STARTCHAR K
ENCODING 75
SWIDTH 620 0
DWIDTH 8 0
BBX 8 10 0 0
BITMAP
33
33
36
6C
78
78
6C
CC
C6
C6
ENDCHAR

STARTCHAR L
ENCODING 76
SWIDTH 440 0
DWIDTH 6 0
BBX 6 10 0 0
BITMAP
30
30
30
60
60
60
60
C0
FC
FC
ENDCHAR

STARTCHAR M
ENCODING 77
SWIDTH 900 0
DWIDTH 12 0
BBX 11 10 0 0
BITMAP
3060
3060
38E0
39E0
6960
6B60
6B60
CE60
CE60
C460
ENDCHAR

STARTCHAR N
ENCODING 78
SWIDTH 740 0
DWIDTH 10 0
BBX 10 10 0 0
BITMAP
30C0
30C0
38C0
3980
6D80
6D80
6780
C700
C300
C300
ENDCHAR

STARTCHAR O
ENCODING 79
SWIDTH 840 0
DWIDTH 11 0
BBX 10 10 1 0
BITMAP
0E00
3F80
7180
60C0
C0C0
C0C0
C180
6380
7F00
1C00
ENDCHAR

STARTCHAR P
ENCODING 80
SWIDTH 560 0
DWIDTH 7 0
BBX 8 10 0 0
BITMAP
3E
3F
33
63
7E
7C
60
C0
C0
C0
ENDCHAR

STARTCHAR Q
ENCODING 81
SWIDTH 840 0
DWIDTH 11 0
BBX 10 10 1 0
BITMAP
0E00
3F80
7180
60C0
C0C0
C0C0
C6C0
6380
7F80
1DC0
ENDCHAR

STARTCHAR R
ENCODING 82
SWIDTH 580 0
DWIDTH 8 0
BBX 8 10 0 0
BITMAP
3E
3F
33
63
7E
7C
66
C6
C3
C3
ENDCHAR

STARTCHAR S
ENCODING 83
SWIDTH 520 0
DWIDTH 7 0
BBX 7 10 0 0
BITMAP
3C
7E
66
70
30
18
1C
CC
FC
78
ENDCHAR

STARTCHAR T
ENCODING 84
SWIDTH 420 0
DWIDTH 5 0
BBX 6 10 0 0
BITMAP
FC
FC
30
30
60
60
60
C0
C0
C0
ENDCHAR

STARTCHAR U
ENCODING 85
SWIDTH 640 0
DWIDTH 9 0
BBX 9 10 0 0
BITMAP
3180
3180
3180
6300
6300
6300
C600
C600
FC00
7800
ENDCHAR

STARTCHAR V
ENCODING 86
SWIDTH 700 0
DWIDTH 9 0
BBX 9 10 1 0
BITMAP
C180
C180
C300
C300
6600
6600
6C00
6C00
3800
3800
ENDCHAR

STARTCHAR W
ENCODING 87
SWIDTH 900 0
DWIDTH 12 0
BBX 11 10 1 0
BITMAP
C460
CE60
CE60
DAC0
DAC0
D2C0
F380
E380
C180
C180
ENDCHAR

STARTCHAR X
ENCODING 88
SWIDTH 680 0
DWIDTH 9 0
BBX 9 10 0 0
BITMAP
6180
6180
3300
1E00
0C00
1C00
3600
6600
C300
C300
ENDCHAR

STARTCHAR Y
ENCODING 89
SWIDTH 620 0
DWIDTH 8 0
BBX 8 10 1 0
BITMAP
C3
C3
66
3C
38
18
30
30
30
30
ENDCHAR

STARTCHAR Z
ENCODING 90
SWIDTH 500 0
DWIDTH 7 0
BBX 7 10 0 0
BITMAP
7E
7E
0C
18
18
30
30
60
FC
FC
ENDCHAR

STARTCHAR bracketleft
ENCODING 91
SWIDTH 320 0
DWIDTH 4 0
BBX 7 13 -1 -3
BITMAP
1E
1E
18
30
30
30
60
60
60
60
C0
F0
F0
ENDCHAR

STARTCHAR backslash
ENCODING 92
SWIDTH 640 0
DWIDTH 8 0
BBX 6 12 1 -2
BITMAP
C0
40
60
20
20
30
10
10
18
08
08
0C
ENDCHAR

STARTCHAR bracketright
ENCODING 93
SWIDTH 320 0
DWIDTH 4 0
BBX 7 13 -2 -3
BITMAP
1E
1E
06
0C
0C
0C
18
18
18
30
30
F0
F0
ENDCHAR

STARTCHAR asciicircum
ENCODING 94
SWIDTH 600 0
DWIDTH 8 0
BBX 6 7 1 3
BITMAP
30
30
78
78
CC
CC
84
ENDCHAR

STARTCHAR underscore
ENCODING 95
SWIDTH 500 0
DWIDTH 7 0
BBX 7 1 0 -2
BITMAP
FE
ENDCHAR

STARTCHAR quoteleft
ENCODING 96
SWIDTH 280 0
DWIDTH 4 0
BBX 3 4 2 6
BITMAP
60
C0
C0
C0
ENDCHAR

STARTCHAR a
ENCODING 97
SWIDTH 660 0
DWIDTH 9 0
BBX 8 7 1 0
BITMAP
3B
6F
C7
C3
C6
EE
76
ENDCHAR

STARTCHAR b
ENCODING 98
SWIDTH 660 0
DWIDTH 9 0
BBX 8 10 1 0
BITMAP
30
30
30
6E
7B
63
C3
E3
F6
DC
ENDCHAR

STARTCHAR c
ENCODING 99
SWIDTH 640 0
DWIDTH 8 0
BBX 7 7 1 0
BITMAP
3C
6E
C6
C0
C6
EC
78
ENDCHAR

STARTCHAR d
ENCODING 100
SWIDTH 660 0
DWIDTH 9 0
BBX 9 10 1 0
BITMAP
0180
0180
0180
3B00
6700
C300
C300
C600
CE00
7600
ENDCHAR

STARTCHAR e
ENCODING 101
SWIDTH 640 0
DWIDTH 8 0
BBX 7 7 1 0
BITMAP
3C
66
C6
FE
C0
E6
7C
ENDCHAR

STARTCHAR f
ENCODING 102
SWIDTH 280 0
DWIDTH 4 0
BBX 5 10 1 0
BITMAP
18
38
60
F0
60
60
C0
C0
C0
C0
ENDCHAR

STARTCHAR g
ENCODING 103
SWIDTH 660 0
DWIDTH 9 0
BBX 8 10 1 -3
BITMAP
3B
6F
C7
C3
C6
EE
76
06
CC
78
ENDCHAR

STARTCHAR h
ENCODING 104
SWIDTH 600 0
DWIDTH 8 0
BBX 7 10 1 0
BITMAP
30
30
30
7C
66
66
66
CC
CC
CC
ENDCHAR

STARTCHAR i
ENCODING 105
SWIDTH 240 0
DWIDTH 4 0
BBX 4 10 1 0
BITMAP
30
30
00
60
60
60
C0
C0
C0
C0
ENDCHAR

STARTCHAR j
ENCODING 106
SWIDTH 260 0
DWIDTH 4 0
BBX 7 13 -2 -3
BITMAP
06
06
00
0C
0C
0C
18
18
18
30
30
F0
E0
ENDCHAR

STARTCHAR k
ENCODING 107
SWIDTH 580 0
DWIDTH 8 0
BBX 7 10 1 0
BITMAP
30
30
30
66
6C
78
70
D8
CC
C6
ENDCHAR

STARTCHAR l
ENCODING 108
SWIDTH 240 0
DWIDTH 3 0
BBX 4 10 0 0
BITMAP
30
30
30
60
60
60
60
C0
C0
C0
ENDCHAR

STARTCHAR m
ENCODING 109
SWIDTH 940 0
DWIDTH 12 0
BBX 11 7 1 0
BITMAP
6CC0
7FE0
6660
6660
CCC0
CCC0
CCC0
ENDCHAR

STARTCHAR n
ENCODING 110
SWIDTH 600 0
DWIDTH 8 0
BBX 7 7 1 0
BITMAP
6C
7E
66
66
CC
CC
CC
ENDCHAR

STARTCHAR o
ENCODING 111
SWIDTH 640 0
DWIDTH 8 0
BBX 7 7 1 0
BITMAP
3C
6E
C6
C6
C6
EC
78
ENDCHAR

STARTCHAR p
ENCODING 112
SWIDTH 660 0
DWIDTH 9 0
BBX 9 10 0 -3
BITMAP
3700
3B80
3180
6180
6180
7300
6E00
C000
C000
C000
ENDCHAR

STARTCHAR q
ENCODING 113
SWIDTH 660 0
DWIDTH 9 0
BBX 8 10 1 -3
BITMAP
3B
6F
C7
C3
C6
CE
76
0C
0C
0C
ENDCHAR

STARTCHAR r
ENCODING 114
SWIDTH 320 0
DWIDTH 4 0
BBX 5 7 0 0
BITMAP
68
78
70
60
C0
C0
C0
ENDCHAR

STARTCHAR s
ENCODING 115
SWIDTH 440 0
DWIDTH 6 0
BBX 6 7 0 0
BITMAP
38
6C
64
30
98
D8
70
ENDCHAR

STARTCHAR t
ENCODING 116
SWIDTH 300 0
DWIDTH 4 0
BBX 5 10 1 0
BITMAP
30
30
30
F8
60
60
60
C0
C0
C0
ENDCHAR

STARTCHAR u
ENCODING 117
SWIDTH 600 0
DWIDTH 8 0
BBX 7 7 1 0
BITMAP
66
66
66
CC
CC
CC
78
ENDCHAR

STARTCHAR v
ENCODING 118
SWIDTH 560 0
DWIDTH 6 0
BBX 7 7 0 0
BITMAP
C6
C6
6C
6C
38
30
30
ENDCHAR

STARTCHAR w
ENCODING 119
SWIDTH 800 0
DWIDTH 9 0
BBX 10 7 0 0
BITMAP
C8C0
C8C0
DD80
DD80
7700
6300
6300
ENDCHAR

STARTCHAR x
ENCODING 120
SWIDTH 560 0
DWIDTH 7 0
BBX 7 7 0 0
BITMAP
66
66
3C
38
78
CC
CC
ENDCHAR

STARTCHAR y
ENCODING 121
SWIDTH 580 0
DWIDTH 8 0
BBX 7 10 1 -3
BITMAP
C6
C6
6C
6C
38
30
30
60
60
C0
ENDCHAR

STARTCHAR z
ENCODING 122
SWIDTH 460 0
DWIDTH 6 0
BBX 6 7 0 0
BITMAP
7C
0C
18
30
60
C0
F8
ENDCHAR

STARTCHAR braceleft
ENCODING 123
SWIDTH 340 0
DWIDTH 4 0
BBX 5 13 0 -3
BITMAP
18
38
30
30
30
60
C0
60
60
60
60
70
30
ENDCHAR

STARTCHAR bar
ENCODING 124
SWIDTH 600 0
DWIDTH 8 0
BBX 1 13 3 -3
BITMAP
80
80
80
80
80
80
80
80
80
80
80
80
80
ENDCHAR

STARTCHAR braceright
ENCODING 125
SWIDTH 340 0
DWIDTH 4 0
BBX 5 13 0 -3
BITMAP
60
70
30
30
30
30
18
30
60
60
60
E0
C0
ENDCHAR

STARTCHAR asciitilde
ENCODING 126
SWIDTH 600 0
DWIDTH 8 0
BBX 6 3 1 3
BITMAP
64
FC
98
ENDCHAR

STARTCHAR space
ENCODING 160
SWIDTH 280 0
DWIDTH 5 0
BBX 0 0 0 0
BITMAP
ENDCHAR

STARTCHAR Aogonek
ENCODING 161
SWIDTH 740 0
DWIDTH 9 0
BBX 10 13 -1 -3
BITMAP
0600
0E00
0E00
1B00
1B00
3300
3F00
7F80
6180
C180
0180
01C0
00C0
ENDCHAR

STARTCHAR breve
ENCODING 162
SWIDTH 480 0
DWIDTH 7 0
BBX 6 2 1 9
BITMAP
CC
78
ENDCHAR

STARTCHAR Lslash
ENCODING 163
SWIDTH 480 0
DWIDTH 6 0
BBX 6 10 0 0
BITMAP
30
30
30
68
78
70
60
C0
FC
FC
ENDCHAR

STARTCHAR currency
ENCODING 164
SWIDTH 600 0
DWIDTH 8 0
BBX 7 7 1 2
BITMAP
BA
6C
C6
C6
C6
6C
BA
ENDCHAR

STARTCHAR Lcaron
ENCODING 165
SWIDTH 440 0
DWIDTH 6 0
BBX 7 10 0 0
BITMAP
36
36
3C
60
60
60
60
C0
FC
FC
ENDCHAR

STARTCHAR Sacute
ENCODING 166
SWIDTH 520 0
DWIDTH 7 0
BBX 7 14 0 0
BITMAP
0E
0C
18
00
3C
7E
66
70
30
18
1C
CC
FC
78
ENDCHAR

STARTCHAR section
ENCODING 167
SWIDTH 560 0
DWIDTH 8 0
BBX 8 14 0 -3
BITMAP
1E
33
33
18
3C
6E
66
66
76
3C
18
CC
CC
78
ENDCHAR

STARTCHAR dieresis
ENCODING 168
SWIDTH 500 0
DWIDTH 7 0
BBX 6 2 1 9
BITMAP
CC
CC
ENDCHAR

STARTCHAR Scaron
ENCODING 169
SWIDTH 520 0
DWIDTH 7 0
BBX 7 14 0 0
BITMAP
36
1C
08
00
3C
7E
66
70
30
18
1C
CC
FC
78
ENDCHAR

STARTCHAR Scommaaccent
ENCODING 170
SWIDTH 520 0
DWIDTH 7 0
BBX 7 13 0 -3
BITMAP
3C
7E
66
70
30
18
1C
CC
FC
78
00
30
60
ENDCHAR

STARTCHAR Tcaron
ENCODING 171
SWIDTH 420 0
DWIDTH 5 0
BBX 6 14 0 0
BITMAP
6C
38
10
00
FC
FC
30
30
60
60
60
C0
C0
C0
ENDCHAR

STARTCHAR Zacute
ENCODING 172
SWIDTH 500 0
DWIDTH 7 0
BBX 7 14 0 0
BITMAP
0E
0C
18
00
7E
7E
0C
18
18
30
30
60
FC
FC
ENDCHAR

STARTCHAR hyphen
ENCODING 173
SWIDTH 420 0
DWIDTH 6 0
BBX 4 2 1 3
BITMAP
F0
F0
ENDCHAR

STARTCHAR Zcaron
ENCODING 174
SWIDTH 500 0
DWIDTH 7 0
BBX 7 14 0 0
BITMAP
36
1C
08
00
7E
7C
0C
18
18
30
30
60
7C
FC
ENDCHAR

STARTCHAR Zdotaccent
ENCODING 175
SWIDTH 500 0
DWIDTH 7 0
BBX 7 13 0 0
BITMAP
18
18
00
7E
7E
0C
18
18
30
30
60
FC
FC
ENDCHAR

STARTCHAR degree
ENCODING 176
SWIDTH 400 0
DWIDTH 6 0
BBX 5 5 1 5
BITMAP
70
88
88
88
70
ENDCHAR

STARTCHAR aogonek
ENCODING 177
SWIDTH 660 0
DWIDTH 9 0
BBX 8 10 1 -3
BITMAP
3B
6F
C7
C3
C6
EE
76
06
07
03
ENDCHAR

STARTCHAR ogonek
ENCODING 178
SWIDTH 340 0
DWIDTH 5 0
BBX 3 3 1 -3
BITMAP
C0
E0
60
ENDCHAR

STARTCHAR lslash
ENCODING 179
SWIDTH 320 0
DWIDTH 3 0
BBX 6 10 -1 0
BITMAP
18
18
18
3C
3C
70
F0
60
60
60
ENDCHAR

STARTCHAR acute
ENCODING 180
SWIDTH 420 0
DWIDTH 6 0
BBX 4 3 2 9
BITMAP
70
60
C0
ENDCHAR

STARTCHAR lcaron
ENCODING 181
SWIDTH 289 0
DWIDTH 5 0
BBX 7 10 0 0
BITMAP
36
36
3C
60
60
60
60
C0
C0
C0
ENDCHAR

STARTCHAR sacute
ENCODING 182
SWIDTH 440 0
DWIDTH 6 0
BBX 6 11 0 0
BITMAP
1C
18
30
00
38
6C
64
30
98
D8
70
ENDCHAR

STARTCHAR caron
ENCODING 183
SWIDTH 540 0
DWIDTH 8 0
BBX 5 2 2 9
BITMAP
D8
70
ENDCHAR

STARTCHAR commaaccent
ENCODING 184
SWIDTH 333 0
DWIDTH 5 0
BBX 3 2 1 -3
BITMAP
60
C0
ENDCHAR

STARTCHAR scaron
ENCODING 185
SWIDTH 440 0
DWIDTH 6 0
BBX 6 11 0 0
BITMAP
6C
38
10
00
38
6C
64
30
98
D8
70
ENDCHAR

STARTCHAR scommaaccent
ENCODING 186
SWIDTH 440 0
DWIDTH 6 0
BBX 6 10 0 -3
BITMAP
38
6C
64
30
98
D8
70
00
60
C0
ENDCHAR

STARTCHAR tcaron
ENCODING 187
SWIDTH 318 0
DWIDTH 6 0
BBX 7 10 1 0
BITMAP
36
36
3C
F8
60
60
60
C0
C0
C0
ENDCHAR

STARTCHAR zacute
ENCODING 188
SWIDTH 460 0
DWIDTH 6 0
BBX 7 11 0 0
BITMAP
0E
0C
18
00
7C
0C
18
30
60
C0
F8
ENDCHAR

STARTCHAR hungarumlaut
ENCODING 189
SWIDTH 700 0
DWIDTH 10 0
BBX 8 3 2 9
BITMAP
77
66
CC
ENDCHAR

STARTCHAR zcaron
ENCODING 190
SWIDTH 460 0
DWIDTH 6 0
BBX 7 11 0 0
BITMAP
36
1C
08
00
7C
0C
18
30
60
C0
F8
ENDCHAR

STARTCHAR zdotaccent
ENCODING 191
SWIDTH 460 0
DWIDTH 6 0
BBX 6 10 0 0
BITMAP
18
18
00
7C
0C
18
30
60
C0
F8
ENDCHAR

STARTCHAR Racute
ENCODING 192
SWIDTH 580 0
DWIDTH 8 0
BBX 8 14 0 0
BITMAP
07
06
0C
00
3E
3F
33
63
7E
7C
66
C6
C3
C3
ENDCHAR

STARTCHAR Aacute
ENCODING 193
SWIDTH 740 0
DWIDTH 9 0
BBX 9 14 -1 0
BITMAP
0380
0300
0600
0000
0600
0E00
0E00
1B00
1B00
3300
3F00
7F80
6180
C180
ENDCHAR

STARTCHAR Acircumflex
ENCODING 194
SWIDTH 740 0
DWIDTH 9 0
BBX 9 14 -1 0
BITMAP
0200
0700
0D80
0000
0600
0E00
0E00
1B00
1B00
3300
3F00
7F80
6180
C180
ENDCHAR

STARTCHAR Abreve
ENCODING 195
SWIDTH 740 0
DWIDTH 9 0
BBX 9 13 -1 0
BITMAP
1980
0F00
0000
0600
0E00
0E00
1B00
1B00
3300
3F00
7F80
6180
C180
ENDCHAR

STARTCHAR Adieresis
ENCODING 196
SWIDTH 740 0
DWIDTH 9 0
BBX 9 13 -1 0
BITMAP
0D80
0D80
0000
0600
0E00
0E00
1B00
1B00
3300
3F00
7F80
6180
C180
ENDCHAR

STARTCHAR Lacute
ENCODING 197
SWIDTH 440 0
DWIDTH 6 0
BBX 7 14 0 0
BITMAP
0E
0C
18
00
30
30
30
60
60
60
60
C0
FC
FC
ENDCHAR

STARTCHAR Cacute
ENCODING 198
SWIDTH 780 0
DWIDTH 10 0
BBX 9 14 1 0
BITMAP
0700
0600
0C00
0000
0E00
3F80
7180
6000
C000
C000
C000
6300
7F00
1C00
ENDCHAR

STARTCHAR Ccedilla
ENCODING 199
SWIDTH 780 0
DWIDTH 10 0
BBX 9 13 1 -3
BITMAP
0E00
3F80
7180
6000
C000
C000
C000
6300
7F00
1C00
0C00
0600
1C00
ENDCHAR

STARTCHAR Ccaron
ENCODING 200
SWIDTH 780 0
DWIDTH 10 0
BBX 9 14 1 0
BITMAP
1B00
0E00
0400
0000
0E00
3F80
7180
6000
C000
C000
C000
6300
7F00
1C00
ENDCHAR

STARTCHAR Eacute
ENCODING 201
SWIDTH 520 0
DWIDTH 7 0
BBX 7 14 0 0
BITMAP
0E
0C
18
00
3E
3E
30
60
7C
7C
60
C0
FC
FC
ENDCHAR

STARTCHAR Eogonek
ENCODING 202
SWIDTH 520 0
DWIDTH 7 0
BBX 7 13 0 -3
BITMAP
3E
3E
30
60
7C
7C
60
C0
FC
FC
0C
0E
06
ENDCHAR

STARTCHAR Edieresis
ENCODING 203
SWIDTH 520 0
DWIDTH 7 0
BBX 7 13 0 0
BITMAP
36
36
00
3E
3E
30
60
7C
7C
60
C0
FC
FC
ENDCHAR

STARTCHAR Ecaron
ENCODING 204
SWIDTH 520 0
DWIDTH 7 0
BBX 7 14 0 0
BITMAP
36
1C
08
00
3E
3E
30
60
7C
7C
60
C0
FC
FC
ENDCHAR

STARTCHAR Iacute
ENCODING 205
SWIDTH 280 0
DWIDTH 4 0
BBX 6 14 0 0
BITMAP
1C
18
30
00
30
30
30
60
60
60
60
C0
C0
C0
ENDCHAR

STARTCHAR Icircumflex
ENCODING 206
SWIDTH 280 0
DWIDTH 4 0
BBX 6 14 0 0
BITMAP
10
38
6C
00
30
30
30
60
60
60
60
C0
C0
C0
ENDCHAR

STARTCHAR Dcaron
ENCODING 207
SWIDTH 700 0
DWIDTH 9 0
BBX 9 14 0 0
BITMAP
3600
1C00
0800
0000
3C00
3F00
3300
6180
6180
6180
C300
C700
FE00
F800
ENDCHAR

STARTCHAR Dcroat
ENCODING 208
SWIDTH 742 0
DWIDTH 9 0
BBX 9 10 0 0
BITMAP
3C00
3F00
3300
F980
F980
6180
C300
C700
FE00
F800
ENDCHAR

STARTCHAR Nacute
ENCODING 209
SWIDTH 740 0
DWIDTH 10 0
BBX 10 14 0 0
BITMAP
0380
0300
0600
0000
30C0
30C0
38C0
3980
6D80
6D80
6780
C700
C300
C300
ENDCHAR

STARTCHAR Ncaron
ENCODING 210
SWIDTH 740 0
DWIDTH 10 0
BBX 10 14 0 0
BITMAP
0D80
0700
0200
0000
30C0
30C0
38C0
3980
6D80
6D80
6780
C700
C300
C300
ENDCHAR

STARTCHAR Oacute
ENCODING 211
SWIDTH 840 0
DWIDTH 11 0
BBX 10 14 1 0
BITMAP
0380
0300
0600
0000
0E00
3F80
7180
60C0
C0C0
C0C0
C180
6380
7F00
1C00
ENDCHAR

STARTCHAR Ocircumflex
ENCODING 212
SWIDTH 840 0
DWIDTH 11 0
BBX 10 14 1 0
BITMAP
0200
0700
0D80
0000
0E00
3F80
7180
60C0
C0C0
C0C0
C180
6380
7F00
1C00
ENDCHAR

STARTCHAR Ohungarumlaut
ENCODING 213
SWIDTH 840 0
DWIDTH 11 0
BBX 11 14 1 0
BITMAP
0EE0
0CC0
1980
0000
0E00
3F80
7180
60C0
C0C0
C0C0
C180
6380
7F00
1C00
ENDCHAR

STARTCHAR Odieresis
ENCODING 214
SWIDTH 840 0
DWIDTH 11 0
BBX 10 13 1 0
BITMAP
1980
1980
0000
0E00
3F80
7180
60C0
C0C0
C0C0
C180
6380
7F00
1C00
ENDCHAR

STARTCHAR multiply
ENCODING 215
SWIDTH 600 0
DWIDTH 8 0
BBX 7 6 1 2
BITMAP
C6
6C
38
38
6C
C6
ENDCHAR

STARTCHAR Rcaron
ENCODING 216
SWIDTH 580 0
DWIDTH 8 0
BBX 8 14 0 0
BITMAP
1B
0E
04
00
3E
3F
33
63
7E
7C
66
C6
C3
C3
ENDCHAR

STARTCHAR Uring
ENCODING 217
SWIDTH 640 0
DWIDTH 9 0
BBX 9 14 0 0
BITMAP
0600
0900
0900
0600
3180
3180
3180
6300
6300
6300
C600
C600
FC00
7800
ENDCHAR

STARTCHAR Uacute
ENCODING 218
SWIDTH 640 0
DWIDTH 9 0
BBX 9 14 0 0
BITMAP
0380
0300
0600
0000
3180
3180
3180
6300
6300
6300
C600
C600
FC00
7800
ENDCHAR

STARTCHAR Uhungarumlaut
ENCODING 219
SWIDTH 640 0
DWIDTH 9 0
BBX 11 14 0 0
BITMAP
0EE0
0CC0
1980
0000
3180
3180
3180
6300
6300
6300
C600
C600
FC00
7800
ENDCHAR

STARTCHAR Udieresis
ENCODING 220
SWIDTH 640 0
DWIDTH 9 0
BBX 9 13 0 0
BITMAP
1980
1980
0000
3180
3180
3180
6300
6300
6300
C600
C600
FC00
7800
ENDCHAR

STARTCHAR Yacute
ENCODING 221
SWIDTH 620 0
DWIDTH 8 0
BBX 8 14 1 0
BITMAP
0E
0C
18
00
C3
C3
66
3C
38
18
30
30
30
30
ENDCHAR

STARTCHAR Tcommaaccent
ENCODING 222
SWIDTH 420 0
DWIDTH 5 0
BBX 7 13 -1 -3
BITMAP
7E
7E
18
18
30
30
30
60
60
60
00
60
C0
ENDCHAR

STARTCHAR germandbls
ENCODING 223
SWIDTH 600 0
DWIDTH 8 0
BBX 8 11 0 0
BITMAP
1E
3F
33
33
66
6E
67
63
C3
CE
CC
ENDCHAR

STARTCHAR racute
ENCODING 224
SWIDTH 320 0
DWIDTH 4 0
BBX 6 12 0 0
BITMAP
1C
18
30
00
68
78
70
60
C0
C0
C0
C0
ENDCHAR

STARTCHAR aacute
ENCODING 225
SWIDTH 660 0
DWIDTH 9 0
BBX 8 11 1 0
BITMAP
07
06
0C
00
3B
6F
C7
C3
C6
EE
76
ENDCHAR

STARTCHAR acircumflex
ENCODING 226
SWIDTH 660 0
DWIDTH 9 0
BBX 8 11 1 0
BITMAP
08
1C
36
00
3B
6F
C7
C3
C6
EE
76
ENDCHAR

STARTCHAR abreve
ENCODING 227
SWIDTH 660 0
DWIDTH 9 0
BBX 8 10 1 0
BITMAP
66
3C
00
3B
6F
C7
C3
C6
EE
76
ENDCHAR

STARTCHAR adieresis
ENCODING 228
SWIDTH 660 0
DWIDTH 9 0
BBX 8 10 1 0
BITMAP
33
33
00
3B
6F
C7
C3
C6
EE
76
ENDCHAR

STARTCHAR lacute
ENCODING 229
SWIDTH 240 0
DWIDTH 3 0
BBX 6 14 0 0
BITMAP
1C
18
30
00
30
30
30
60
60
60
60
C0
C0
C0
ENDCHAR

STARTCHAR cacute
ENCODING 230
SWIDTH 640 0
DWIDTH 8 0
BBX 7 11 1 0
BITMAP
0E
0C
18
00
3C
6E
C6
C0
C6
EC
78
ENDCHAR

STARTCHAR ccedilla
ENCODING 231
SWIDTH 640 0
DWIDTH 8 0
BBX 7 10 1 -3
BITMAP
3C
6E
C6
C0
C6
EC
78
30
18
70
ENDCHAR

STARTCHAR ccaron
ENCODING 232
SWIDTH 640 0
DWIDTH 8 0
BBX 7 11 1 0
BITMAP
36
1C
08
00
3C
6E
C6
C0
C6
EC
78
ENDCHAR

STARTCHAR eacute
ENCODING 233
SWIDTH 640 0
DWIDTH 8 0
BBX 7 11 1 0
BITMAP
0E
0C
18
00
3C
66
C6
FE
C0
E6
7C
ENDCHAR

STARTCHAR eogonek
ENCODING 234
SWIDTH 640 0
DWIDTH 8 0
BBX 7 10 1 -3
BITMAP
3C
66
C6
FE
C0
E6
7C
18
1C
0C
ENDCHAR

STARTCHAR edieresis
ENCODING 235
SWIDTH 640 0
DWIDTH 8 0
BBX 7 10 1 0
BITMAP
36
36
00
3C
66
C6
FE
C0
E6
7C
ENDCHAR

STARTCHAR ecaron
ENCODING 236
SWIDTH 640 0
DWIDTH 8 0
BBX 7 11 1 0
BITMAP
36
1C
08
00
3C
66
C6
FE
C0
E6
7C
ENDCHAR

STARTCHAR iacute
ENCODING 237
SWIDTH 240 0
DWIDTH 4 0
BBX 5 11 1 0
BITMAP
38
30
60
00
60
60
60
C0
C0
C0
C0
ENDCHAR

STARTCHAR icircumflex
ENCODING 238
SWIDTH 240 0
DWIDTH 4 0
BBX 5 11 1 0
BITMAP
20
70
D8
00
60
60
60
C0
C0
C0
C0
ENDCHAR

STARTCHAR dcaron
ENCODING 239
SWIDTH 707 0
DWIDTH 11 0
BBX 12 10 1 0
BITMAP
01B0
01B0
01E0
3B00
6700
C300
C300
C600
CE00
7600
ENDCHAR

STARTCHAR dcroat
ENCODING 240
SWIDTH 660 0
DWIDTH 9 0
BBX 10 10 1 0
BITMAP
0180
07C0
0180
3B00
6700
C300
C300
C600
CE00
7600
ENDCHAR

STARTCHAR nacute
ENCODING 241
SWIDTH 600 0
DWIDTH 8 0
BBX 7 11 1 0
BITMAP
0E
0C
18
00
6C
7E
66
66
CC
CC
CC
ENDCHAR

STARTCHAR ncaron
ENCODING 242
SWIDTH 600 0
DWIDTH 8 0
BBX 7 11 1 0
BITMAP
36
1C
08
00
6C
7E
66
66
CC
CC
CC
ENDCHAR

STARTCHAR oacute
ENCODING 243
SWIDTH 640 0
DWIDTH 8 0
BBX 7 11 1 0
BITMAP
0E
0C
18
00
3C
6E
C6
C6
C6
EC
78
ENDCHAR

STARTCHAR ocircumflex
ENCODING 244
SWIDTH 640 0
DWIDTH 8 0
BBX 7 11 1 0
BITMAP
08
1C
36
00
3C
6E
C6
C6
C6
EC
78
ENDCHAR

STARTCHAR ohungarumlaut
ENCODING 245
SWIDTH 640 0
DWIDTH 8 0
BBX 10 11 1 0
BITMAP
1DC0
1980
3300
0000
3C00
6E00
C600
C600
C600
EC00
7800
ENDCHAR

STARTCHAR odieresis
ENCODING 246
SWIDTH 640 0
DWIDTH 8 0
BBX 7 10 1 0
BITMAP
36
36
00
3C
6E
C6
C6
C6
EC
78
ENDCHAR

STARTCHAR divide
ENCODING 247
SWIDTH 600 0
DWIDTH 8 0
BBX 6 8 1 1
BITMAP
30
30
00
FC
FC
00
30
30
ENDCHAR

STARTCHAR rcaron
ENCODING 248
SWIDTH 320 0
DWIDTH 4 0
BBX 6 11 0 0
BITMAP
6C
38
10
00
68
78
70
60
C0
C0
C0
ENDCHAR

STARTCHAR uring
ENCODING 249
SWIDTH 600 0
DWIDTH 8 0
BBX 7 11 1 0
BITMAP
08
14
14
08
66
66
66
CC
CC
CC
78
ENDCHAR

STARTCHAR uacute
ENCODING 250
SWIDTH 600 0
DWIDTH 8 0
BBX 7 11 1 0
BITMAP
0E
0C
18
00
66
66
66
CC
CC
CC
78
ENDCHAR

STARTCHAR uhungarumlaut
ENCODING 251
SWIDTH 600 0
DWIDTH 8 0
BBX 10 11 1 0
BITMAP
1DC0
1980
3300
0000
6600
6600
6600
CC00
CC00
CC00
7800
ENDCHAR

STARTCHAR udieresis
ENCODING 252
SWIDTH 600 0
DWIDTH 8 0
BBX 7 10 1 0
BITMAP
36
36
00
66
66
66
CC
CC
CC
78
ENDCHAR

STARTCHAR yacute
ENCODING 253
SWIDTH 580 0
DWIDTH 8 0
BBX 7 14 1 -3
BITMAP
0E
0C
18
00
C6
C6
6C
6C
38
30
30
60
60
C0
ENDCHAR

STARTCHAR tcommaaccent
ENCODING 254
SWIDTH 300 0
DWIDTH 4 0
BBX 6 13 0 -3
BITMAP
18
18
18
7C
30
30
30
60
60
60
00
60
C0
ENDCHAR

STARTCHAR dotaccent
ENCODING 255
SWIDTH 280 0
DWIDTH 4 0
BBX 2 2 2 9
BITMAP
C0
C0
ENDCHAR
ENDFONT
